<?xml version="1.0" standalone="no"?><!DOCTYPE svg PUBLIC "-//W3C//DTD SVG 1.1//EN" "http://www.w3.org/Graphics/SVG/1.1/DTD/svg11.dtd"><svg t="1767513105072" class="icon" viewBox="0 0 1024 1024" version="1.1" xmlns="http://www.w3.org/2000/svg" p-id="5030" xmlns:xlink="http://www.w3.org/1999/xlink" width="200" height="200"><path d="M940.877913 423.891478a392.815304 392.815304 0 0 1-234.76313-77.779478v352.300522c0 179.867826-139.709217 325.587478-312.097392 325.587478S81.92 878.280348 81.92 698.412522c0-179.912348 139.709217-325.632 312.097391-325.632 17.229913 0 33.970087 1.513739 50.309566 4.318608v186.590609a134.767304 134.767304 0 0 0-48.973914-9.171478c-76.933565 0-139.353043 65.001739-139.353043 145.274435 0 80.228174 62.419478 145.318957 139.353043 145.318956 76.8 0 139.174957-65.090783 139.174957-145.318956V0h174.08c0 134.500174 104.537043 243.533913 233.472 243.533913v180.268522l-1.202087 0.089043" fill="#2C2C2C" p-id="5031"></path></svg>